<svg xmlns="http://www.w3.org/2000/svg" viewBox="0 0 308.87 92.86"><defs/><defs><clipPath id="a"><path fill="none" d="M0 0h92.86v92.86H0z"/></clipPath><clipPath id="b"><path fill="none" d="M102.91 31.5h205.96v47.03H102.91z"/></clipPath></defs><g clip-path="url(#a)"><path fill="#56bbeb" d="M92.86 46.43A46.43 46.43 0 1146.43 0a46.43 46.43 0 0146.43 46.43"/><path fill="#fff" d="M65.7 74.31H23.17V37.72l42.59-21.83v7.41l-36.24 19v25.67h29.83V46.49l6.35-3.27v31.09z"/><path fill="#fff" d="M52.65 61.09h-7.2v-7.53l7.2-3.68v11.21z"/></g><g fill="#1d1d1b" clip-path="url(#b)"><path d="M147.93 77.77v-33.7h9.55v3.64c2.18-2.95 7.32-4.73 10.75-4.27v10h-.5q-4.9 0-7.57 2.98t-2.67 8.9v12.45zM171.5 44.07h9.56v33.7h-9.56zM197.15 78.02l-13.26-33.95h10.12l7.55 22.57 7.6-22.57h9.94l-13.27 33.95h-8.68zM235.57 78.52a17.3 17.3 0 01-12.64-4.87 16.96 16.96 0 01-4.97-12.67 17.64 17.64 0 014.72-12.45 15.57 15.57 0 0111.95-5.1q7.98 0 12.2 5.29a20.21 20.21 0 014.2 13.01q0 .76-.12 2.52h-23.45a8.21 8.21 0 002.83 4.9 8.42 8.42 0 005.4 1.7 11.74 11.74 0 008.18-3.46l5.47 4.84q-5.1 6.29-13.77 6.29m-8.24-20.25h14.4a9.11 9.11 0 00-2.3-5.22 6.34 6.34 0 00-4.8-1.95 6.53 6.53 0 00-4.81 1.92 9.42 9.42 0 00-2.48 5.25M136.92 40.01q-6.54-6.25-16.85-6.26h-17.16v33.9l9.68-4.99V42.49h7.48a12.66 12.66 0 0113.27 13.27 13.03 13.03 0 01-3.65 9.59 11.93 11.93 0 01-5.26 3.1l-18.1 9.32h13.74q10.25 0 16.82-6.3a20.86 20.86 0 006.57-15.71 20.88 20.88 0 00-6.54-15.75M180.74 35.95a4.46 4.46 0 11-4.46-4.45 4.46 4.46 0 014.46 4.45M274.8 53.87a7.61 7.61 0 011.51 5.1v18.8h.22l9.34.02V55.95q0-5.85-3.02-9.18t-8.43-3.33q-5.66 0-9.87 5.4v-4.77H255v33.7h9.56v-18.8a7.32 7.32 0 011.6-5.1 5.62 5.62 0 014.37-1.76 5.33 5.33 0 014.27 1.76M301.66 67.9V54.8h.02l7.19-3.7v-3.73h-7.2V39.8l-8.7 4.3v3.28h-3.65v7.44h3.66v14.52q0 5.03 2.31 7.12a9.53 9.53 0 006.6 2.08 13.14 13.14 0 006.86-1.77v-6.98a8.85 8.85 0 01-4.28 1.1q-2.8 0-2.8-2.98"/></g></svg>