<svg xmlns="http://www.w3.org/2000/svg" viewBox="0 0 103.95 140.81"><defs/><defs><clipPath id="a"><rect width="103.95" height="103.95" fill="none"/></clipPath><clipPath id="b"><rect width="103.41" height="23.61" x=".54" y="117.2" fill="none"/></clipPath><clipPath id="c"><rect width="103.41" height="23.61" x=".54" y="117.2" fill="none"/></clipPath></defs><g clip-path="url(#a)"><path fill="#56bbeb" d="M103.95 51.98A51.98 51.98 0 1151.97 0a51.98 51.98 0 0151.98 51.98"/><polygon fill="#fff" points="73.54 83.19 25.94 83.19 25.94 42.22 73.61 17.78 73.61 26.08 33.04 47.35 33.04 76.08 66.44 76.08 66.44 52.04 73.54 48.38 73.54 83.19"/><polygon fill="#fff" points="58.94 68.38 50.87 68.38 50.87 59.96 58.94 55.84 58.94 68.38"/></g><g clip-path="url(#b)"><g fill="#1d1d1b" clip-path="url(#c)"><path d="M23.14 140.43V123.5h4.8v1.83a6.5 6.5 0 015.4-2.15v5.02h-.25a4.84 4.84 0 00-3.8 1.5 6.51 6.51 0 00-1.34 4.47v6.25z"/><rect width="4.8" height="16.92" x="34.98" y="123.51"/><polygon points="47.86 140.55 41.2 123.51 46.28 123.51 50.07 134.84 53.89 123.51 58.88 123.51 52.22 140.55 47.86 140.55"/><path d="M67.15 140.8a8.68 8.68 0 01-6.35-2.44 8.52 8.52 0 01-2.49-6.36 8.86 8.86 0 012.37-6.25 7.82 7.82 0 016-2.56 7.37 7.37 0 016.12 2.65 10.15 10.15 0 012.12 6.54c0 .25-.03.67-.07 1.26H63.08a4.12 4.12 0 001.42 2.46 4.23 4.23 0 002.71.85 5.9 5.9 0 004.1-1.73l2.75 2.43a8.43 8.43 0 01-6.91 3.15M63 130.64h7.23a4.57 4.57 0 00-1.15-2.62 3.19 3.19 0 00-2.42-.98 3.28 3.28 0 00-2.41.96 4.74 4.74 0 00-1.25 2.64M17.62 121.47a11.74 11.74 0 00-8.46-3.14H.54v17.02l4.86-2.5v-10.13h3.76a6.48 6.48 0 014.81 1.86 7.2 7.2 0 01.02 9.61 6 6 0 01-2.64 1.56l-9.09 4.68h6.9a11.71 11.71 0 008.45-3.16 11.13 11.13 0 00.01-15.8M39.62 119.44a2.24 2.24 0 11-2.24-2.24 2.24 2.24 0 012.24 2.24M86.85 128.43a3.82 3.82 0 01.75 2.56v9.44h.11l4.7.01v-10.97a6.61 6.61 0 00-1.52-4.6 5.42 5.42 0 00-4.23-1.68 6.17 6.17 0 00-4.96 2.72v-2.4h-4.8v16.92h4.8v-9.44a3.67 3.67 0 01.8-2.56 2.82 2.82 0 012.2-.88 2.67 2.67 0 012.14.88M100.33 135.47v-6.57h.01l3.61-1.86v-1.87h-3.62v-3.8l-4.36 2.15v1.65h-1.84v3.73h1.84v7.3a4.63 4.63 0 001.16 3.57 4.79 4.79 0 003.32 1.04 6.6 6.6 0 003.44-.89v-3.5a4.44 4.44 0 01-2.15.55q-1.4 0-1.4-1.5"/></g></g></svg>